# xmcd CD database file
#
# Track frame offsets:
#	150
#	19430
#	28063
#	39128
#	50670
#	63415
#	75100
#	89285
#	102478
#	109660
#	123295
#	136643
#	148935
#	162415
#
# Disc length: 2327 seconds
#
# Revision: 0
# Processed by: cddbd v1.4b42PL0 Copyright (c) Steve Scherf et al.
# Submitted via: CDex 1.40Beta5
#
DISCID=b409150e
DTITLE=Sonny Boy Williamson - 28 Great Blues Songs - CD 2/2
DYEAR=1994
DGENRE=Blues
TTITLE0=Nine Below Zero
TTITLE1=Checkin' up on My Baby
TTITLE2=Got to Move
TTITLE3=Stop Crying
TTITLE4=All My Love in Vain
TTITLE5=Don't Start Me Talking
TTITLE6=Help Me
TTITLE7=I Never Do Wrong
TTITLE8=I Wonder Why
TTITLE9=Lonesome Cabin
TTITLE10=Sad to Be Alone
TTITLE11=The Goat
TTITLE12=Your Imagination
TTITLE13=Santa Claus
EXTD=YEAR: 1994 ID3G:   0
EXTT0=
EXTT1=
EXTT2=
EXTT3=
EXTT4=
EXTT5=
EXTT6=
EXTT7=
EXTT8=
EXTT9=
EXTT10=
EXTT11=
EXTT12=
EXTT13=
PLAYORDER=
